<?xml version="1.0" standalone="no"?>
<svg xmlns:xlink="http://www.w3.org/1999/xlink" id="wave" style="transform:rotate(0deg); transition: 0.3s" viewBox="0 0 1440 490" version="1.1" xmlns="http://www.w3.org/2000/svg"><defs><linearGradient id="sw-gradient-0" x1="0" x2="0" y1="1" y2="0"><stop stop-color="rgba(255, 199, 4, 1)" offset="0%"/><stop stop-color="rgba(231, 33, 32, 1)" offset="100%"/></linearGradient></defs><path style="transform:translate(0, 0px); opacity:1" fill="url(#sw-gradient-0)" d="M0,147L120,122.5C240,98,480,49,720,32.7C960,16,1200,33,1440,89.8C1680,147,1920,245,2160,310.3C2400,376,2640,408,2880,367.5C3120,327,3360,212,3600,147C3840,82,4080,65,4320,57.2C4560,49,4800,49,5040,81.7C5280,114,5520,180,5760,245C6000,310,6240,376,6480,343C6720,310,6960,180,7200,138.8C7440,98,7680,147,7920,155.2C8160,163,8400,131,8640,122.5C8880,114,9120,131,9360,122.5C9600,114,9840,82,10080,57.2C10320,33,10560,16,10800,65.3C11040,114,11280,229,11520,302.2C11760,376,12000,408,12240,359.3C12480,310,12720,180,12960,155.2C13200,131,13440,212,13680,204.2C13920,196,14160,98,14400,57.2C14640,16,14880,33,15120,106.2C15360,180,15600,310,15840,334.8C16080,359,16320,278,16560,204.2C16800,131,17040,65,17160,32.7L17280,0L17280,490L17160,490C17040,490,16800,490,16560,490C16320,490,16080,490,15840,490C15600,490,15360,490,15120,490C14880,490,14640,490,14400,490C14160,490,13920,490,13680,490C13440,490,13200,490,12960,490C12720,490,12480,490,12240,490C12000,490,11760,490,11520,490C11280,490,11040,490,10800,490C10560,490,10320,490,10080,490C9840,490,9600,490,9360,490C9120,490,8880,490,8640,490C8400,490,8160,490,7920,490C7680,490,7440,490,7200,490C6960,490,6720,490,6480,490C6240,490,6000,490,5760,490C5520,490,5280,490,5040,490C4800,490,4560,490,4320,490C4080,490,3840,490,3600,490C3360,490,3120,490,2880,490C2640,490,2400,490,2160,490C1920,490,1680,490,1440,490C1200,490,960,490,720,490C480,490,240,490,120,490L0,490Z"/></svg>